<?xml version="1.0" encoding="UTF-8"?><svg id="Layer_1" xmlns="http://www.w3.org/2000/svg" viewBox="0 0 79.46 40.1"><path d="M27.18,38.99v-12.44h1.43c1.62,8.1,5.45,12.15,11.49,12.15,2.72,0,4.83-.77,6.32-2.32,1.49-1.55,2.24-3.28,2.24-5.21s-.66-3.56-1.97-4.88c-1.31-1.29-3.71-2.68-7.19-4.16-3.1-1.33-5.44-2.5-7.02-3.49s-2.81-2.3-3.69-3.89-1.33-3.3-1.33-5.11c0-2.76,.95-5.05,2.87-6.89,1.91-1.83,4.33-2.75,7.26-2.75,1.63,0,3.18,.27,4.62,.8,1.44,.53,2.93,1.64,4.45,3.31,.88-1.05,1.37-2.18,1.48-3.39h1.26V10.84h-1.26c-.72-2.95-2-5.27-3.84-6.96-1.83-1.69-3.96-2.54-6.37-2.54s-3.99,.62-5.06,1.87c-1.07,1.25-1.61,2.61-1.61,4.09,0,1.79,.67,3.3,2.03,4.53,1.33,1.26,3.74,2.66,7.22,4.22,3.33,1.48,5.75,2.68,7.26,3.58,1.51,.9,2.72,2.15,3.64,3.75,.91,1.6,1.37,3.44,1.37,5.53,0,3.31-1.1,6-3.31,8.07-2.21,2.07-5.15,3.11-8.84,3.11-4.24,0-7.78-1.63-10.61-4.88-.63,.89-1.09,2.15-1.4,3.77h-1.43Z"/><path d="M23.08,11.21L4.73,21.83l18.35,10.62v2.73L0,21.83,23.08,8.47v2.73Z"/><path d="M56.38,8.48l23.08,13.35-23.08,13.35v-2.73l18.35-10.62-18.35-10.62v-2.73Z"/></svg>